<svg xmlns="http://www.w3.org/2000/svg" xmlns:xlink="http://www.w3.org/1999/xlink" width="565.9" height="131.235" viewBox="0 0 565.9 131.235">
  <defs>
    <linearGradient id="linear-gradient" x1="0.244" y1="0.478" x2="0.627" y2="0.516" gradientUnits="objectBoundingBox">
      <stop offset="0" stop-color="#3f2ea5"/>
      <stop offset="1" stop-color="#7e6dfb"/>
    </linearGradient>
    <linearGradient id="linear-gradient-2" x1="0.461" y1="0.5" x2="0.989" y2="0.5" xlink:href="#linear-gradient"/>
    <linearGradient id="linear-gradient-3" x1="0.027" y1="0.5" x2="0.793" y2="0.544" xlink:href="#linear-gradient"/>
    <linearGradient id="linear-gradient-4" x1="0.5" y1="0" x2="0.5" y2="1" xlink:href="#linear-gradient"/>
  </defs>
  <g id="Group_7" data-name="Group 7" transform="translate(-935.1 -433.765)">
    <g id="Group_2" data-name="Group 2" transform="translate(539 -70)">
      <path id="Path_11" data-name="Path 11" d="M44.8,0a5.89,5.89,0,0,0,5.9-5.8,5.911,5.911,0,0,0-5.9-5.9H20.1L49.8-61.2a5.208,5.208,0,0,0,.8-3A5.868,5.868,0,0,0,44.8-70H9.8A5.826,5.826,0,0,0,4-64.1a5.8,5.8,0,0,0,5.8,5.8H34.5L4.8-8.8A5.1,5.1,0,0,0,4-5.9,5.891,5.891,0,0,0,9.8,0Z" transform="translate(556 575)" fill="#3f2ea5"/>
      <path id="Path_12" data-name="Path 12" d="M97.8-14.5a22.334,22.334,0,0,1-11.1,2.8A23.323,23.323,0,0,1,63.4-35,23.323,23.323,0,0,1,86.7-58.3a22.334,22.334,0,0,1,11.1,2.8,5.929,5.929,0,0,0,8-2.4,5.928,5.928,0,0,0-2.4-7.9A35.657,35.657,0,0,0,86.7-70a35.038,35.038,0,0,0-35,35,35.038,35.038,0,0,0,35,35,35.657,35.657,0,0,0,16.7-4.2,5.928,5.928,0,0,0,2.4-7.9A5.929,5.929,0,0,0,97.8-14.5Zm51.3-51.8a5.969,5.969,0,0,0-5.4-3.7,6,6,0,0,0-5.5,3.7L114.9-8a5.381,5.381,0,0,0-.4,2.2A5.866,5.866,0,0,0,120.3,0a5.815,5.815,0,0,0,5.4-3.7l4.4-10.9h27.1l4.4,10.9A5.815,5.815,0,0,0,167,0a5.738,5.738,0,0,0,5.8-5.8,5.7,5.7,0,0,0-.4-2.2ZM134.8-26.2l8.9-22.3,8.8,22.3ZM212.9,0a5.89,5.89,0,0,0,5.9-5.8,5.911,5.911,0,0,0-5.9-5.9H192.5V-64.2a5.8,5.8,0,0,0-5.8-5.8,5.826,5.826,0,0,0-5.9,5.8V-5.8A5.826,5.826,0,0,0,186.7,0Zm19.7,0a5.8,5.8,0,0,0,5.8-5.8V-64.2a5.8,5.8,0,0,0-5.8-5.8,5.8,5.8,0,0,0-5.8,5.8V-5.8A5.8,5.8,0,0,0,232.6,0Zm51.5-40a19.737,19.737,0,0,0,3.1-11c0-7.7-3.4-13.5-9.8-16.7a23.848,23.848,0,0,0-9.1-2.3H252.2a5.8,5.8,0,0,0-5.8,5.8V-5.8A5.8,5.8,0,0,0,252.2,0h20.4c9.4,0,20.5-8.4,20.5-21.9C293.1-29.8,289.9-36.2,284.1-40Zm-26-18.3h11c1.9,0,6.5.6,6.5,7.3,0,7-7.3,7.3-8.8,7.3h-8.7Zm19,45.2a13,13,0,0,1-5.2,1.4H258.1V-32.1h13.8c7.2,0,9.5,6.5,9.5,10.2C281.4-19.2,281-15.3,277.1-13.1ZM339-11.7H312.8V-29.2h20.4A5.8,5.8,0,0,0,339-35a5.8,5.8,0,0,0-5.8-5.8H312.8V-58.3H339a5.848,5.848,0,0,0,5.9-5.9A5.826,5.826,0,0,0,339-70H307a5.826,5.826,0,0,0-5.9,5.8V-5.8A5.826,5.826,0,0,0,307,0h32a5.826,5.826,0,0,0,5.9-5.8A5.848,5.848,0,0,0,339-11.7Zm47.5-14.4a21.194,21.194,0,0,0,8.8-9.2,27.871,27.871,0,0,0,2.8-11.4c0-9.4-4.3-16.6-12.1-20.5A28.186,28.186,0,0,0,374.6-70H358.7a5.8,5.8,0,0,0-5.8,5.8V-5.8A5.8,5.8,0,0,0,358.7,0a5.89,5.89,0,0,0,5.9-5.8V-23.3h9.8L387.3-2.7a5.956,5.956,0,0,0,5,2.7,5.53,5.53,0,0,0,3-.9,5.782,5.782,0,0,0,2.8-4.9,5.861,5.861,0,0,0-.9-3.1ZM364.6-58.3h10a15.552,15.552,0,0,1,6.2,1.5c3.8,1.9,5.6,5.1,5.6,10.1a15.66,15.66,0,0,1-1.7,6.4c-1.9,3.6-5.1,5.3-10.1,5.3h-10Z" transform="translate(558 575)" fill="#74d2db"/>
    </g>
    <text id="Technology_Solutions" data-name="Technology Solutions" transform="translate(1099 556)" fill="#707070" font-size="41" font-family="ArialNova-Light, Arial Nova" font-weight="300" letter-spacing="0.041em"><tspan x="0" y="0">Technology Solutions</tspan></text>
    <g id="Group_6" data-name="Group 6" transform="translate(591.385 17.765)">
      <rect id="Rectangle_3" data-name="Rectangle 3" width="162.371" height="30.395" rx="15.197" transform="translate(484.717 438.588) rotate(138)" fill="url(#linear-gradient)"/>
      <path id="Subtraction_5" data-name="Subtraction 5" d="M113.423,30.395H49.58A21.6,21.6,0,0,0,49.581,0h63.842a15.2,15.2,0,0,1,10.746,25.943A15.1,15.1,0,0,1,113.423,30.395ZM.031,12.805h0A15.037,15.037,0,0,1,1.5,8.28,15.21,15.21,0,0,0,.031,12.8ZM9.623.99v0a15.137,15.137,0,0,1,3.021-.8A15.414,15.414,0,0,0,9.623.99Z" transform="translate(350.498 422.399)" fill="url(#linear-gradient-2)"/>
      <path id="Subtraction_4" data-name="Subtraction 4" d="M89.959,30.395H15.2A15.2,15.2,0,0,1,4.451,4.451,15.1,15.1,0,0,1,15.2,0H72.02c.518,12.833,7.39,24.479,17.936,30.393Z" transform="translate(349.542 511.183)" fill="url(#linear-gradient-3)"/>
      <circle id="Ellipse_3" data-name="Ellipse 3" cx="9.5" cy="9.5" r="9.5" transform="translate(379.615 422.235)" fill="url(#linear-gradient-4)"/>
      <circle id="Ellipse_4" data-name="Ellipse 4" cx="6.5" cy="6.5" r="6.5" transform="translate(362.615 422.235)" fill="url(#linear-gradient-4)"/>
      <ellipse id="Ellipse_5" data-name="Ellipse 5" cx="3.5" cy="3" rx="3.5" ry="3" transform="translate(362.615 435.235)" fill="url(#linear-gradient-4)"/>
      <ellipse id="Ellipse_6" data-name="Ellipse 6" cx="3" cy="3.5" rx="3" ry="3.5" transform="translate(354.615 441.235)" fill="url(#linear-gradient-4)"/>
      <circle id="Ellipse_7" data-name="Ellipse 7" cx="5" cy="5" r="5" transform="translate(368.615 436.235)" fill="url(#linear-gradient-4)"/>
      <circle id="Ellipse_8" data-name="Ellipse 8" cx="3" cy="3" r="3" transform="translate(373.615 431.235)" fill="url(#linear-gradient-4)"/>
      <circle id="Ellipse_9" data-name="Ellipse 9" cx="3.5" cy="3.5" r="3.5" transform="translate(374.615 422.235)" fill="url(#linear-gradient-4)"/>
      <circle id="Ellipse_10" data-name="Ellipse 10" cx="3.5" cy="3.5" r="3.5" transform="translate(378.615 438.235)" fill="url(#linear-gradient-4)"/>
      <ellipse id="Ellipse_11" data-name="Ellipse 11" cx="5.5" cy="5" rx="5.5" ry="5" transform="translate(360.615 443.235)" fill="url(#linear-gradient-4)"/>
      <circle id="Ellipse_12" data-name="Ellipse 12" cx="3" cy="3" r="3" transform="translate(372.615 446.235)" fill="url(#linear-gradient-4)"/>
      <circle id="Ellipse_13" data-name="Ellipse 13" cx="5.5" cy="5.5" r="5.5" transform="translate(351.615 431.235)" fill="url(#linear-gradient-4)"/>
      <ellipse id="Ellipse_14" data-name="Ellipse 14" cx="3.5" cy="4" rx="3.5" ry="4" transform="translate(355.615 424.235)" fill="url(#linear-gradient-4)"/>
      <ellipse id="Ellipse_15" data-name="Ellipse 15" cx="4.5" cy="5" rx="4.5" ry="5" transform="translate(383.615 441.235)" fill="url(#linear-gradient-4)"/>
      <ellipse id="Ellipse_16" data-name="Ellipse 16" cx="3.5" cy="3" rx="3.5" ry="3" transform="translate(398.615 431.235)" fill="url(#linear-gradient-4)"/>
      <ellipse id="Ellipse_17" data-name="Ellipse 17" cx="3" cy="4" rx="3" ry="4" transform="translate(397.615 437.235)" fill="url(#linear-gradient-4)"/>
      <circle id="Ellipse_18" data-name="Ellipse 18" cx="2" cy="2" r="2" transform="translate(393.615 444.235)" fill="url(#linear-gradient-4)"/>
      <path id="Path_9" data-name="Path 9" d="M49.822-50.482a7.551,7.551,0,0,1-2.3,5.539,7.551,7.551,0,0,1-5.539,2.3,7.553,7.553,0,0,1-5.7-2.462,12.359,12.359,0,0,0-8.034-2.98,12.359,12.359,0,0,0-9.686,4.6,16.348,16.348,0,0,0-3.984,11.079,16.315,16.315,0,0,0,3.984,11.111,12.394,12.394,0,0,0,9.686,4.568,12.206,12.206,0,0,0,8.163-3.045,7.677,7.677,0,0,1,5.442-2.2,7.551,7.551,0,0,1,5.539,2.3,7.551,7.551,0,0,1,2.3,5.539A7.335,7.335,0,0,1,47.36-8.564Q39.327-.012,28.248-.012A24.966,24.966,0,0,1,14.059-4.353,30.535,30.535,0,0,1,3.79-16.144,35.345,35.345,0,0,1,0-32.406,35.345,35.345,0,0,1,3.79-48.668,30.535,30.535,0,0,1,14.059-60.459,24.966,24.966,0,0,1,28.248-64.8q10.949,0,19.177,8.617v.065A7.443,7.443,0,0,1,49.822-50.482Z" transform="translate(424.728 541.749)" fill="#70c1de"/>
    </g>
  </g>
</svg>
