<svg xmlns="http://www.w3.org/2000/svg" xmlns:xlink="http://www.w3.org/1999/xlink" width="396.1" height="197" viewBox="0 0 396.1 197">
  <defs>
    <linearGradient id="linear-gradient" x1="0.244" y1="0.478" x2="0.627" y2="0.516" gradientUnits="objectBoundingBox">
      <stop offset="0" stop-color="#3f2ea5"/>
      <stop offset="1" stop-color="#7e6dfb"/>
    </linearGradient>
    <linearGradient id="linear-gradient-2" x1="0.461" y1="0.5" x2="0.989" y2="0.5" xlink:href="#linear-gradient"/>
    <linearGradient id="linear-gradient-3" x1="0.027" y1="0.5" x2="0.793" y2="0.544" xlink:href="#linear-gradient"/>
    <linearGradient id="linear-gradient-4" x1="0.5" y1="0" x2="0.5" y2="1" xlink:href="#linear-gradient"/>
    <linearGradient id="linear-gradient-20" x1="0.939" y1="0.439" x2="0.048" y2="0.755" xlink:href="#linear-gradient"/>
  </defs>
  <g id="Group_5" data-name="Group 5" transform="translate(-901 -105)">
    <g id="Group_3" data-name="Group 3" transform="translate(698 -311)">
      <rect id="Rectangle_3" data-name="Rectangle 3" width="132.001" height="24.71" rx="12.355" transform="translate(458.345 434.363) rotate(138)" fill="url(#linear-gradient)"/>
      <path id="Subtraction_5" data-name="Subtraction 5" d="M92.218,24.709h-51.9A17.556,17.556,0,0,0,40.317,0h51.9a12.354,12.354,0,0,1,8.735,21.091A12.27,12.27,0,0,1,92.218,24.709ZM.07,10.2h0A12.372,12.372,0,0,1,10.077.187,12.393,12.393,0,0,0,.07,10.2Z" transform="translate(349.221 421.202)" fill="url(#linear-gradient-2)"/>
      <path id="Subtraction_4" data-name="Subtraction 4" d="M73.132,24.71H12.355A12.355,12.355,0,0,1,3.619,3.619,12.274,12.274,0,0,1,12.355,0H58.549c.421,10.433,6.007,19.9,14.58,24.708Z" transform="translate(348.452 493.38)" fill="url(#linear-gradient-3)"/>
      <circle id="Ellipse_3" data-name="Ellipse 3" cx="8" cy="8" r="8" transform="translate(373 421)" fill="url(#linear-gradient-4)"/>
      <ellipse id="Ellipse_4" data-name="Ellipse 4" cx="5" cy="5.5" rx="5" ry="5.5" transform="translate(360 421)" fill="url(#linear-gradient-4)"/>
      <circle id="Ellipse_5" data-name="Ellipse 5" cx="2.5" cy="2.5" r="2.5" transform="translate(360 432)" fill="url(#linear-gradient-4)"/>
      <circle id="Ellipse_6" data-name="Ellipse 6" cx="3" cy="3" r="3" transform="translate(352 437)" fill="url(#linear-gradient-4)"/>
      <circle id="Ellipse_7" data-name="Ellipse 7" cx="4" cy="4" r="4" transform="translate(364 433)" fill="url(#linear-gradient-4)"/>
      <ellipse id="Ellipse_8" data-name="Ellipse 8" cx="2.5" cy="3" rx="2.5" ry="3" transform="translate(368 428)" fill="url(#linear-gradient-4)"/>
      <circle id="Ellipse_9" data-name="Ellipse 9" cx="2.5" cy="2.5" r="2.5" transform="translate(369 421)" fill="url(#linear-gradient-4)"/>
      <circle id="Ellipse_10" data-name="Ellipse 10" cx="2.5" cy="2.5" r="2.5" transform="translate(372 434)" fill="url(#linear-gradient-4)"/>
      <circle id="Ellipse_11" data-name="Ellipse 11" cx="4" cy="4" r="4" transform="translate(358 438)" fill="url(#linear-gradient-4)"/>
      <circle id="Ellipse_12" data-name="Ellipse 12" cx="2.5" cy="2.5" r="2.5" transform="translate(367 440)" fill="url(#linear-gradient-4)"/>
      <ellipse id="Ellipse_13" data-name="Ellipse 13" cx="5" cy="4.5" rx="5" ry="4.5" transform="translate(350 428)" fill="url(#linear-gradient-4)"/>
      <circle id="Ellipse_14" data-name="Ellipse 14" cx="3" cy="3" r="3" transform="translate(354 423)" fill="url(#linear-gradient-4)"/>
      <circle id="Ellipse_15" data-name="Ellipse 15" cx="4" cy="4" r="4" transform="translate(376 437)" fill="url(#linear-gradient-4)"/>
      <ellipse id="Ellipse_16" data-name="Ellipse 16" cx="2.5" cy="3" rx="2.5" ry="3" transform="translate(389 428)" fill="url(#linear-gradient-4)"/>
      <ellipse id="Ellipse_17" data-name="Ellipse 17" cx="3" cy="2.5" rx="3" ry="2.5" transform="translate(387 434)" fill="url(#linear-gradient-4)"/>
      <circle id="Ellipse_18" data-name="Ellipse 18" cx="2" cy="2" r="2" transform="translate(384 439)" fill="url(#linear-gradient-4)"/>
      <path id="Path_9" data-name="Path 9" d="M40.5-53.16a6.138,6.138,0,0,1-1.87,4.5,6.138,6.138,0,0,1-4.5,1.87,6.14,6.14,0,0,1-4.635-2,10.047,10.047,0,0,0-6.531-2.423,10.048,10.048,0,0,0-7.874,3.74,13.291,13.291,0,0,0-3.239,9.007,13.264,13.264,0,0,0,3.239,9.033,10.076,10.076,0,0,0,7.874,3.713A9.923,9.923,0,0,0,29.6-28.194a6.241,6.241,0,0,1,4.424-1.791,6.138,6.138,0,0,1,4.5,1.87,6.138,6.138,0,0,1,1.87,4.5,5.963,5.963,0,0,1-1.9,4.53A20.607,20.607,0,0,1,22.964-12.13a20.3,20.3,0,0,1-11.535-3.529,24.824,24.824,0,0,1-8.348-9.586A28.734,28.734,0,0,1,0-38.465a28.734,28.734,0,0,1,3.081-13.22,24.824,24.824,0,0,1,8.348-9.586A20.3,20.3,0,0,1,22.964-64.8q8.9,0,15.59,7.005v.053A6.051,6.051,0,0,1,40.5-53.16Z" transform="translate(409.576 530.349)" fill="url(#linear-gradient-20)"/>
    </g>
    <g id="Group_4" data-name="Group 4" transform="translate(341 -273)">
      <path id="Path_11" data-name="Path 11" d="M44.8,0a5.89,5.89,0,0,0,5.9-5.8,5.911,5.911,0,0,0-5.9-5.9H20.1L49.8-61.2a5.208,5.208,0,0,0,.8-3A5.868,5.868,0,0,0,44.8-70H9.8A5.826,5.826,0,0,0,4-64.1a5.8,5.8,0,0,0,5.8,5.8H34.5L4.8-8.8A5.1,5.1,0,0,0,4-5.9,5.891,5.891,0,0,0,9.8,0Z" transform="translate(556 575)" fill="#3f2ea5"/>
      <path id="Path_12" data-name="Path 12" d="M97.8-14.5a22.334,22.334,0,0,1-11.1,2.8A23.323,23.323,0,0,1,63.4-35,23.323,23.323,0,0,1,86.7-58.3a22.334,22.334,0,0,1,11.1,2.8,5.929,5.929,0,0,0,8-2.4,5.928,5.928,0,0,0-2.4-7.9A35.657,35.657,0,0,0,86.7-70a35.038,35.038,0,0,0-35,35,35.038,35.038,0,0,0,35,35,35.657,35.657,0,0,0,16.7-4.2,5.928,5.928,0,0,0,2.4-7.9A5.929,5.929,0,0,0,97.8-14.5Zm51.3-51.8a5.969,5.969,0,0,0-5.4-3.7,6,6,0,0,0-5.5,3.7L114.9-8a5.381,5.381,0,0,0-.4,2.2A5.866,5.866,0,0,0,120.3,0a5.815,5.815,0,0,0,5.4-3.7l4.4-10.9h27.1l4.4,10.9A5.815,5.815,0,0,0,167,0a5.738,5.738,0,0,0,5.8-5.8,5.7,5.7,0,0,0-.4-2.2ZM134.8-26.2l8.9-22.3,8.8,22.3ZM212.9,0a5.89,5.89,0,0,0,5.9-5.8,5.911,5.911,0,0,0-5.9-5.9H192.5V-64.2a5.8,5.8,0,0,0-5.8-5.8,5.826,5.826,0,0,0-5.9,5.8V-5.8A5.826,5.826,0,0,0,186.7,0Zm19.7,0a5.8,5.8,0,0,0,5.8-5.8V-64.2a5.8,5.8,0,0,0-5.8-5.8,5.8,5.8,0,0,0-5.8,5.8V-5.8A5.8,5.8,0,0,0,232.6,0Zm51.5-40a19.737,19.737,0,0,0,3.1-11c0-7.7-3.4-13.5-9.8-16.7a23.848,23.848,0,0,0-9.1-2.3H252.2a5.8,5.8,0,0,0-5.8,5.8V-5.8A5.8,5.8,0,0,0,252.2,0h20.4c9.4,0,20.5-8.4,20.5-21.9C293.1-29.8,289.9-36.2,284.1-40Zm-26-18.3h11c1.9,0,6.5.6,6.5,7.3,0,7-7.3,7.3-8.8,7.3h-8.7Zm19,45.2a13,13,0,0,1-5.2,1.4H258.1V-32.1h13.8c7.2,0,9.5,6.5,9.5,10.2C281.4-19.2,281-15.3,277.1-13.1ZM339-11.7H312.8V-29.2h20.4A5.8,5.8,0,0,0,339-35a5.8,5.8,0,0,0-5.8-5.8H312.8V-58.3H339a5.848,5.848,0,0,0,5.9-5.9A5.826,5.826,0,0,0,339-70H307a5.826,5.826,0,0,0-5.9,5.8V-5.8A5.826,5.826,0,0,0,307,0h32a5.826,5.826,0,0,0,5.9-5.8A5.848,5.848,0,0,0,339-11.7Zm47.5-14.4a21.194,21.194,0,0,0,8.8-9.2,27.871,27.871,0,0,0,2.8-11.4c0-9.4-4.3-16.6-12.1-20.5A28.186,28.186,0,0,0,374.6-70H358.7a5.8,5.8,0,0,0-5.8,5.8V-5.8A5.8,5.8,0,0,0,358.7,0a5.89,5.89,0,0,0,5.9-5.8V-23.3h9.8L387.3-2.7a5.956,5.956,0,0,0,5,2.7,5.53,5.53,0,0,0,3-.9,5.782,5.782,0,0,0,2.8-4.9,5.861,5.861,0,0,0-.9-3.1ZM364.6-58.3h10a15.552,15.552,0,0,1,6.2,1.5c3.8,1.9,5.6,5.1,5.6,10.1a15.66,15.66,0,0,1-1.7,6.4c-1.9,3.6-5.1,5.3-10.1,5.3h-10Z" transform="translate(558 575)" fill="#74d2db"/>
    </g>
  </g>
</svg>
