<svg xmlns="http://www.w3.org/2000/svg" width="396.1" height="70" viewBox="0 0 396.1 70">
  <g id="Group_2" data-name="Group 2" transform="translate(-560 -505)">
    <path id="Path_11" data-name="Path 11" d="M44.8,0a5.89,5.89,0,0,0,5.9-5.8,5.911,5.911,0,0,0-5.9-5.9H20.1L49.8-61.2a5.208,5.208,0,0,0,.8-3A5.868,5.868,0,0,0,44.8-70H9.8A5.826,5.826,0,0,0,4-64.1a5.8,5.8,0,0,0,5.8,5.8H34.5L4.8-8.8A5.1,5.1,0,0,0,4-5.9,5.891,5.891,0,0,0,9.8,0Z" transform="translate(556 575)" fill="#3f2ea5"/>
    <path id="Path_12" data-name="Path 12" d="M97.8-14.5a22.334,22.334,0,0,1-11.1,2.8A23.323,23.323,0,0,1,63.4-35,23.323,23.323,0,0,1,86.7-58.3a22.334,22.334,0,0,1,11.1,2.8,5.929,5.929,0,0,0,8-2.4,5.928,5.928,0,0,0-2.4-7.9A35.657,35.657,0,0,0,86.7-70a35.038,35.038,0,0,0-35,35,35.038,35.038,0,0,0,35,35,35.657,35.657,0,0,0,16.7-4.2,5.928,5.928,0,0,0,2.4-7.9A5.929,5.929,0,0,0,97.8-14.5Zm51.3-51.8a5.969,5.969,0,0,0-5.4-3.7,6,6,0,0,0-5.5,3.7L114.9-8a5.381,5.381,0,0,0-.4,2.2A5.866,5.866,0,0,0,120.3,0a5.815,5.815,0,0,0,5.4-3.7l4.4-10.9h27.1l4.4,10.9A5.815,5.815,0,0,0,167,0a5.738,5.738,0,0,0,5.8-5.8,5.7,5.7,0,0,0-.4-2.2ZM134.8-26.2l8.9-22.3,8.8,22.3ZM212.9,0a5.89,5.89,0,0,0,5.9-5.8,5.911,5.911,0,0,0-5.9-5.9H192.5V-64.2a5.8,5.8,0,0,0-5.8-5.8,5.826,5.826,0,0,0-5.9,5.8V-5.8A5.826,5.826,0,0,0,186.7,0Zm19.7,0a5.8,5.8,0,0,0,5.8-5.8V-64.2a5.8,5.8,0,0,0-5.8-5.8,5.8,5.8,0,0,0-5.8,5.8V-5.8A5.8,5.8,0,0,0,232.6,0Zm51.5-40a19.737,19.737,0,0,0,3.1-11c0-7.7-3.4-13.5-9.8-16.7a23.848,23.848,0,0,0-9.1-2.3H252.2a5.8,5.8,0,0,0-5.8,5.8V-5.8A5.8,5.8,0,0,0,252.2,0h20.4c9.4,0,20.5-8.4,20.5-21.9C293.1-29.8,289.9-36.2,284.1-40Zm-26-18.3h11c1.9,0,6.5.6,6.5,7.3,0,7-7.3,7.3-8.8,7.3h-8.7Zm19,45.2a13,13,0,0,1-5.2,1.4H258.1V-32.1h13.8c7.2,0,9.5,6.5,9.5,10.2C281.4-19.2,281-15.3,277.1-13.1ZM339-11.7H312.8V-29.2h20.4A5.8,5.8,0,0,0,339-35a5.8,5.8,0,0,0-5.8-5.8H312.8V-58.3H339a5.848,5.848,0,0,0,5.9-5.9A5.826,5.826,0,0,0,339-70H307a5.826,5.826,0,0,0-5.9,5.8V-5.8A5.826,5.826,0,0,0,307,0h32a5.826,5.826,0,0,0,5.9-5.8A5.848,5.848,0,0,0,339-11.7Zm47.5-14.4a21.194,21.194,0,0,0,8.8-9.2,27.871,27.871,0,0,0,2.8-11.4c0-9.4-4.3-16.6-12.1-20.5A28.186,28.186,0,0,0,374.6-70H358.7a5.8,5.8,0,0,0-5.8,5.8V-5.8A5.8,5.8,0,0,0,358.7,0a5.89,5.89,0,0,0,5.9-5.8V-23.3h9.8L387.3-2.7a5.956,5.956,0,0,0,5,2.7,5.53,5.53,0,0,0,3-.9,5.782,5.782,0,0,0,2.8-4.9,5.861,5.861,0,0,0-.9-3.1ZM364.6-58.3h10a15.552,15.552,0,0,1,6.2,1.5c3.8,1.9,5.6,5.1,5.6,10.1a15.66,15.66,0,0,1-1.7,6.4c-1.9,3.6-5.1,5.3-10.1,5.3h-10Z" transform="translate(558 575)" fill="#74d2db"/>
  </g>
</svg>
